# xmcd
#
# Track frame offsets:
#	150
#	21345
#	37042
#	60442
#	78882
#	99527
#	122052
#	142072
#	159822
#	177795
#	192205
#	213485
#	231527
#	249110
#	267162
#
# Disc length: 4440 seconds
#
# Revision: 0
# Processed by: cddbd v1.5.1PL0 Copyright (c) Steve Scherf et al.
# Submitted via: dBpowerAMP V4.0
#
DISCID=c711560f
DTITLE=Kasey Chambers  - Wayward Angel 
DYEAR=2004
DGENRE=Country
TTITLE0=Pony
TTITLE1=Hollywood
TTITLE2=stronger
TTITLE3=Bluebird
TTITLE4=More Than Ordinary
TTITLE5=Wayward Angel 
TTITLE6=Paper Aeroplane
TTITLE7=Like A River 
TTITLE8=For Sale 
TTITLE9=Follow You Home 
TTITLE10=Mother
TTITLE11=Guilty As Sin
TTITLE12=Lost And Found 
TTITLE13=Saturated
TTITLE14=DATA
EXTD=
EXTT0=
EXTT1=
EXTT2=
EXTT3=
EXTT4=
EXTT5=
EXTT6=
EXTT7=
EXTT8=
EXTT9=
EXTT10=
EXTT11=
EXTT12=
EXTT13=
EXTT14=
PLAYORDER=
